<svg width="48" height="48" viewBox="0 0 48 48" fill="none" xmlns="http://www.w3.org/2000/svg">
<path d="M33.9371 4.82155C34.5469 3.64466 34.0905 2.18398 32.8587 1.69472C28.7134 0.0483783 24.1748 -0.416093 19.7539 0.378596C14.5426 1.31536 9.78735 3.94917 6.22874 7.86983C2.67013 11.7905 0.507944 16.7779 0.0789156 22.0553C-0.350113 27.3328 0.978104 32.6039 3.85671 37.0479C6.73531 41.4919 11.0027 44.8592 15.9943 46.6254C20.9858 48.3916 26.4214 48.4576 31.4543 46.813C36.4873 45.1684 40.8352 41.9057 43.8207 37.5329C46.3535 33.8232 47.7853 29.4914 47.9777 25.0354C48.0349 23.7111 46.8885 22.6974 45.5651 22.7727C44.2418 22.848 43.2457 23.9851 43.1555 25.3076C42.9237 28.7031 41.7919 31.9918 39.8566 34.8263C37.4681 38.3245 33.9898 40.9347 29.9635 42.2504C25.9371 43.566 21.5887 43.5133 17.5954 42.1003C13.6022 40.6873 10.1882 37.9935 7.88537 34.4383C5.58248 30.8831 4.51991 26.6662 4.86313 22.4443C5.20635 18.2223 6.93611 14.2324 9.78299 11.0959C12.6299 7.95933 16.4341 5.85229 20.6031 5.10288C23.9812 4.49565 27.4451 4.80738 30.6387 5.9842C31.8824 6.4425 33.3274 5.99843 33.9371 4.82155Z" fill="#55A55E"/>
</svg>
